<?xml version="1.0" encoding="UTF-8"?>
<!DOCTYPE svg PUBLIC "-//W3C//DTD SVG 1.1//EN" "http://www.w3.org/Graphics/SVG/1.1/DTD/svg11.dtd">
<!-- Creator: CorelDRAW 2018 (64-Bit) -->
<svg xmlns="http://www.w3.org/2000/svg" xml:space="preserve" width="500mm" height="500mm" version="1.1" style="shape-rendering:geometricPrecision; text-rendering:geometricPrecision; image-rendering:optimizeQuality; fill-rule:evenodd; clip-rule:evenodd"
viewBox="0 0 50000 50000"
 xmlns:xlink="http://www.w3.org/1999/xlink">
 <defs>
  <style type="text/css">
   <![CDATA[
    .fil0 {fill:black;fill-rule:nonzero}
   ]]>
  </style>
 </defs>
 <g id="Слой_x0020_1">
  <metadata id="CorelCorpID_0Corel-Layer"/>
  <path class="fil0" d="M18595.88 10814.62c-1.92,3069 -3.84,6137.98 -5.75,9206.97 39.31,791.71 763.46,1365.85 1798.17,1800.11 2531.88,1062.62 6661.07,1062.85 9193.46,0.01 926.15,-388.7 1605.28,-768.83 1795,-1785.41l-2.91 -9221.28c-363.35,399.99 -911.51,753.8 -1598.73,1042.22 -2656.75,1115 -6923.4,1115.01 -9580.14,0 -687.45,-288.51 -1235.75,-642.47 -1599.1,-1042.62zm-2334.47 11854.24c0,-196.53 298.82,-196.53 298.82,0l0.01 13873.63c0,196.53 -298.82,196.53 -298.82,0l-0.01 -13873.63zm19330.84 16176.05l0 -570.58 1453.58 0 0 570.58 -1453.58 0zm791.33 -25218.09l0 -983.45 -853.87 0 0 -547.48 853.87 0 0 -970.39 579.62 0 0 970.39 876.97 0 0 547.48 -876.97 0 0 983.45 -579.62 0zm5181.56 9368.51c0,-197.31 300,-197.31 300,0l0 13873.61c0,197.31 -300,197.31 -300,0l0 -13873.61zm-9691.38 -6241.29c1282.79,610.54 3057.17,892.44 4818.75,881.84 1821.68,-10.95 6366.93,-614.36 6366.22,-2859.19l-2.82 -8946.17c-363.35,399.99 -911.51,753.8 -1598.73,1042.22 -2656.75,1115 -6923.4,1115.01 -9580.14,0 -687.44,-288.51 -1235.74,-642.47 -1599.09,-1042.61l-1.16 1862.02c755.57,394.32 1627.2,1068.74 1594.75,2014.79l2.22 7047.1zm11185.44 -501.73c-1334.79,1474.94 -4514.33,1872.74 -6366.63,1882.16 -1747.14,8.88 -3500.86,-261.55 -4818.63,-833.48l7.93 25141.12c2555.23,1124.24 9744.46,1343.02 11026.61,-1396.68 102.35,-218.73 157.34,-457.16 157.34,-715.71 0,-8025.76 -4.09,-16051.61 -6.62,-24077.41zm-6237.17 -12811.83c-328.84,0 -328.84,-500 0,-500 754.17,0 1432.8,-90.18 1920.29,-235.97 178.38,-53.35 939.79,-262.62 493.83,-518.82 -111.94,-64.28 -281.29,-130.34 -493.81,-193.9 -1065.17,-318.55 -2775.46,-318.55 -3840.63,0 -399.26,119.4 -646.23,247.64 -646.23,356.36 0,538.46 0,1077.01 0,1615.5 0,108.72 246.97,236.95 646.24,356.35 1061.1,317.34 2779.5,317.34 3840.6,0 162.22,-48.51 628.63,-167.17 647.23,-378.4l-0.01 -961.03c-142.5,76.96 -312.16,144.89 -504.64,202.46 -531.87,159.06 -1261.53,257.45 -2062.87,257.45zm-2793.31 -1577.05c173.26,-139.61 422.68,-258.13 730.41,-350.16 1152.23,-344.56 2973.56,-344.56 4125.79,0 361.94,108.25 643.24,253.13 814.77,425.88 1118.33,236.36 2064.77,600.72 2734.04,1048.81 710.21,475.51 1120.83,1052.1 1120.83,1684.54 0,11878.33 6.52,23756.74 10.27,35635.09 24.68,281.55 -85.83,693.75 -205.17,948.78 -1421.57,3037.62 -8693.87,2844.94 -11477.62,1725.96l0.73 2309.77c387.24,4416.92 -13809.26,4667.81 -13806.66,340.31l1.62 -2598.32c-2400.11,1039.77 -6156.15,1068.44 -8656.99,365.29 -1464.1,-411.66 -2990.15,-1103.96 -2989.05,-2809.94l22.31 -35742.69c-61.01,-1765.86 2841.61,-2601.04 4178.14,-2847.03 172.04,-172.55 446.39,-318.4 796.47,-429.06 1151.74,-364.09 2981.87,-364.09 4133.61,0 399.97,126.43 701.08,298.79 863.7,504.44 1103.98,238.5 2036.54,601.63 2695.25,1046.32 701.57,473.62 1106.78,1046.97 1106.78,1675.74 0,882.38 -0.43,1764.79 -0.15,2647.19 587.26,-243.19 1276.16,-441.57 2036.22,-582.28 171.1,-178.67 450.35,-329.48 809.15,-443.31 1155.37,-366.53 2978.22,-366.52 4133.59,0 407.6,129.32 712.55,306.36 872.87,517.74 628.16,136.19 1200.89,313.04 1699.27,522.57 0.58,-928.86 0.76,-1857.72 0.76,-2786.57 0,-657.52 444.33,-1254.94 1207.79,-1741.05 728.95,-464.14 2194.64,-987.92 3041.27,-1068.02zm5858.86 628.7l0.01 1449.46c41.28,468.88 -650.67,751.65 -1002.69,856.93 -1156.17,345.76 -2969.59,345.76 -4125.76,0 -620.11,-185.45 -1003.66,-478.41 -1003.66,-834.87 0,-513.64 0.97,-1027.4 0.97,-1541.08 -1020.92,213.86 -1884.09,535.73 -2501.42,928.8 -616.54,392.57 -975.37,847.56 -975.37,1321.13 0,658.5 684.34,1274.97 1790.74,1739.3 2533.24,1063.18 6660.18,1063.17 9193.42,0 1106.4,-464.35 1790.74,-1080.82 1790.74,-1739.3 0,-453.03 -329.05,-889.44 -898.17,-1270.48 -559.74,-374.76 -1340.46,-688.25 -2268.81,-909.89zm-8482.74 2411.56c-31.39,-76.36 5.08,-163.73 81.44,-195.12 76.36,-31.39 163.73,5.08 195.12,81.44 151.85,368.74 562.23,673.84 1135.81,912.62 2025.96,843.41 5813.97,785.93 7838.74,-47.92 664.1,-273.5 1148.34,-629.9 1330.7,-1067.97 75.53,-181.89 352.09,-67.04 276.56,114.84 -215.56,517.82 -757.86,926.7 -1493.58,1229.69 -2096.12,863.24 -5969.94,921.04 -8067.26,47.92 -645.01,-268.51 -1112.68,-626.64 -1297.53,-1075.5zm-19139.19 34065.88l0 -570.58 1453.58 0 0 570.58 -1453.58 0zm791.32 -25218.09l0 -983.45 -853.87 0 0 -547.48 853.87 0 0 -970.39 579.62 0 0 970.39 876.97 0 0 547.48 -876.97 0 0 983.45 -579.62 0zm5517.21 31838.6c-2.25,3538.17 12809.58,3623.48 12809.58,-275.85 0,-8025.77 -4.09,-16051.62 -6.62,-24077.42 -363.33,401.46 -912.73,756.55 -1602.02,1045.84 -2653.31,1113.57 -6927.11,1113.47 -9580.18,-0.01 -691.57,-290.24 -1242.27,-646.74 -1605.56,-1049.85 -5.05,8117.6 -10.14,16238.45 -15.2,24357.29zm-11621.12 -30367.49c0,658.48 684.34,1274.95 1790.74,1739.3 2561.14,1074.87 6814.31,1074.06 9350.24,-67.16 1.51,-2412.57 3.56,-4825.17 3.56,-7237.73 0,-656.58 443.12,-1253.26 1204.68,-1739.07 132.67,-84.63 275.46,-166.1 427.55,-244.14l-0.54 -1718.6c-363.35,399.98 -911.51,753.8 -1598.72,1042.21 -2656.74,1115.01 -6923.39,1115 -9580.14,0 -687.44,-288.51 -1235.73,-642.47 -1599.08,-1042.61 -1.93,3089.19 1.71,6179.41 1.71,9267.8zm11140.64 2214.57c-2658.83,1099.68 -6891.98,1098.37 -9543.26,-14.33 -691.58,-290.25 -1242.3,-646.74 -1605.59,-1049.86l-15.07 24131.82c-0.96,1523.77 1304.11,2042.55 2625.72,2414.13 2425.6,681.98 6231.16,661.37 8522.57,-432.81l15.63 -25048.95zm-4598.28 -13858.3c-328.84,0 -328.84,-500 0,-500 752.34,0 1429.61,-95.19 1916.39,-249.07 856.82,-222.64 839.77,-529.12 0.01,-782.57 -1061.17,-335.46 -2771.64,-335.46 -3832.81,0 -140.6,44.44 -650.14,204.56 -650.14,398.65l0 1642.04c5.29,166.17 248.46,322.52 650.14,449.49 1057.31,334.21 2775.5,334.22 3832.81,0 401.68,-126.97 650.14,-267.45 650.14,-391.29l0 -1050.2c-141.34,79.64 -309.33,150.25 -499.75,210.44 -532.59,168.36 -1263.62,272.51 -2066.79,272.51zm3066.54 567.25c0,476.55 -622.81,748.7 -999.74,867.85 -1155.63,365.29 -2977.98,365.28 -4133.61,0 -613.44,-193.91 -994.42,-495.81 -999.62,-860.3 -14.69,-526.8 -0.12,-1076.66 -0.12,-1606.04 -997.26,209.05 -3475.82,940.97 -3475.82,2249.54 0,658.48 684.34,1274.95 1790.74,1739.3 2533.24,1063.17 6660.18,1063.18 9193.42,0 1106.4,-464.33 1790.74,-1080.8 1790.74,-1739.3 0,-449.28 -324.41,-882.51 -886.08,-1261.68 -561.1,-378.79 -1346.05,-695.38 -2279.91,-918.46l0 1529.09zm-8483.72 882.23c-74.77,-181.88 201.79,-295.57 276.56,-113.68 151.85,368.74 562.22,673.84 1135.8,912.62 2025.98,843.42 5813.95,785.95 7838.74,-47.91 664.12,-273.49 1148.34,-629.89 1330.71,-1067.97 75.53,-181.89 352.09,-67.04 276.56,114.84 -215.57,517.82 -757.86,926.71 -1493.59,1229.69 -2096.13,863.24 -5969.93,921.03 -8067.26,47.91 -645.01,-268.51 -1112.67,-626.64 -1297.52,-1075.5zm15831.95 38801.07l0 -570.58 1453.58 0 0 570.58 -1453.58 0zm791.33 -25218.09l0 -983.45 -853.87 0 0 -547.48 853.87 0 0 -970.39 579.62 0 0 970.39 876.97 0 0 547.48 -876.97 0 0 983.45 -579.62 0zm5071.55 9368.5c0,-197.31 300,-197.31 300,0l0 13873.63c0,197.31 -300,197.31 -300,0l0 -13873.63zm-4633.11 -19547.34c-328.84,0 -328.84,-500 0,-500 649.3,0 1427.02,-68.14 2039.77,-291.35 762.47,-277.73 654.7,-498.96 -123.37,-745.81 -1057.41,-335.44 -2775.39,-335.45 -3832.79,0 -401.69,127.44 -650.15,268.71 -650.15,393.58 0,563.86 -0.98,1127.84 -0.98,1691.75 20.46,232.45 470.72,358.4 651.11,415.63 1053.38,334.24 2779.42,334.2 3832.82,0 401.67,-127.43 650.14,-268.7 650.14,-393.56 0,-350.9 0.97,-701.95 0.97,-1052.9 -104.46,57.89 -224.44,111.48 -357.83,160.07 -669.24,243.77 -1500.26,322.59 -2209.69,322.59zm3065.56 -955.44c0,508.55 0.99,1017.18 0.99,1525.68 0,368.62 -382.07,674.16 -999.74,870.12 -1146.89,363.86 -2986.72,363.9 -4133.62,0 -617.68,-195.97 -999.73,-501.5 -999.73,-870.14 0,-531.83 0.99,-1063.78 0.99,-1595.65 -1022.55,214.2 -1886.91,536.81 -2504.55,930.8 -614.63,392.08 -972.26,846.34 -972.26,1319.15 0,658.5 684.34,1274.97 1790.74,1739.3 2533.24,1063.18 6660.18,1063.17 9193.42,0 1106.4,-464.35 1790.74,-1080.82 1790.74,-1739.3 0,-680.11 -730.5,-1204.12 -1280.31,-1498.38 -512.6,-274.32 -1153.53,-506.54 -1886.67,-681.58zm-8482.73 2411.14c-31.39,-76.36 5.08,-163.73 81.44,-195.12 76.36,-31.39 163.73,5.08 195.12,81.44 151.84,368.72 562.22,673.83 1135.78,912.61 2025.99,843.42 5813.96,785.94 7838.76,-47.91 664.1,-273.49 1148.34,-629.88 1330.71,-1067.96 75.53,-181.89 352.09,-67.04 276.56,114.84 -215.57,517.82 -757.87,926.7 -1493.59,1229.68 -2096.14,863.24 -5969.94,921.04 -8067.28,47.91 -644.98,-268.51 -1112.66,-626.64 -1297.5,-1075.49z"/>
 </g>
</svg>
